<svg width="220" height="47" viewBox="0 0 220 47" fill="none" xmlns="http://www.w3.org/2000/svg">
<path fill-rule="evenodd" clip-rule="evenodd" d="M17.1578 10.1995C17.158 9.07644 17.4889 7.97849 18.1091 7.04342C18.7293 6.10835 19.611 5.37782 20.6437 4.94352C21.6764 4.50922 22.814 4.3905 23.9137 4.60226C25.0134 4.81402 26.0263 5.34683 26.8251 6.13381C27.624 6.92079 28.1733 7.92688 28.404 9.0258C28.6348 10.1247 28.5367 11.2675 28.1221 12.3107C27.7075 13.354 26.9949 14.2511 26.0738 14.8897C25.1526 15.5282 24.0638 15.8796 22.9442 15.8998L22.5312 17.1406C23.5082 17.7348 24.3562 18.5198 25.0247 19.4492C25.6933 20.3785 26.1687 21.4331 26.4229 22.5503H28.922C29.3573 21.55 30.1227 20.7306 31.0896 20.2298C32.0564 19.729 33.1658 19.5773 34.231 19.8003C35.2963 20.0233 36.2525 20.6073 36.9389 21.4541C37.6253 22.301 38 23.3591 38 24.4504C38 25.5417 37.6253 26.5998 36.9389 27.4467C36.2525 28.2935 35.2963 28.8775 34.231 29.1005C33.1658 29.3235 32.0564 29.1718 31.0896 28.671C30.1227 28.1702 29.3573 27.3508 28.922 26.3505H26.421C26.1055 27.7365 25.4504 29.0218 24.5149 30.09L25.8488 31.4277C26.8618 31.029 27.9808 30.9923 29.0177 31.3238C30.0545 31.6552 30.9459 32.3346 31.542 33.2477C32.1381 34.1608 32.4025 35.2519 32.2908 36.3375C32.179 37.4231 31.698 38.437 30.9285 39.2087C30.1589 39.9804 29.1479 40.4628 28.0655 40.5749C26.983 40.687 25.895 40.4218 24.9845 39.824C24.0741 39.2262 23.3966 38.3322 23.0661 37.2924C22.7356 36.2526 22.7722 35.1304 23.1697 34.1144L21.4 32.3397C20.3564 32.7771 19.2363 33.0019 18.1052 33.001C16.8033 33.001 15.5187 32.702 14.3499 32.1269L12.6996 34.1144C13.3311 35.3005 13.5243 36.6722 13.245 37.9872C12.9657 39.3023 12.2318 40.476 11.1732 41.3009C10.1145 42.1259 8.79909 42.549 7.45945 42.4955C6.11981 42.442 4.84215 41.9153 3.85224 41.0085C2.86233 40.1017 2.22388 38.8732 2.04973 37.5401C1.87557 36.2069 2.17691 34.855 2.90051 33.7231C3.6241 32.5912 4.72336 31.7522 6.00404 31.3544C7.28473 30.9566 8.66439 31.0257 9.89925 31.5493L11.4036 29.7366C10.219 28.2309 9.5761 26.3683 9.57905 24.4504C9.57905 23.0538 9.91251 21.7351 10.5056 20.5722L8.86096 19.1966C7.88814 19.6861 6.77692 19.8246 5.71419 19.589C4.65146 19.3534 3.70206 18.7579 3.02569 17.9027C2.34931 17.0476 1.98723 15.9849 2.00034 14.8935C2.01346 13.802 2.40096 12.7484 3.09768 11.9099C3.7944 11.0713 4.75783 10.4989 5.82591 10.289C6.89399 10.0791 8.00157 10.2445 8.96234 10.7574C9.92311 11.2703 10.6785 12.0993 11.1013 13.1051C11.5242 14.1108 11.5888 15.2319 11.2843 16.2799L12.9289 17.6556C14.641 16.3396 16.7886 15.7268 18.935 15.9416L19.3481 14.699C18.6656 14.1656 18.1135 13.483 17.734 12.7033C17.3544 11.9235 17.1573 11.0672 17.1578 10.1995Z" fill="url(#paint0_radial_2003_33448)"/>
<path d="M53.92 23V5.96H58.12L62.824 19.16L67.528 5.96H71.728V23H68.608V11.24L64.312 22.976H61.336L57.04 11.24V23H53.92ZM74.4813 23V10.184H77.5533V23H74.4813ZM74.4333 8.48V5.744H77.6253V8.48H74.4333ZM80.6341 23V10.184H83.4181L83.5381 13.784L83.1781 13.64C83.3061 12.744 83.5701 12.024 83.9701 11.48C84.3701 10.936 84.8581 10.536 85.4341 10.28C86.0101 10.024 86.6421 9.896 87.3301 9.896C88.2741 9.896 89.0661 10.104 89.7061 10.52C90.3621 10.936 90.8581 11.512 91.1941 12.248C91.5301 12.968 91.6981 13.808 91.6981 14.768V23H88.6261V15.752C88.6261 15.032 88.5541 14.424 88.4101 13.928C88.2661 13.432 88.0261 13.056 87.6901 12.8C87.3701 12.528 86.9381 12.392 86.3941 12.392C85.5781 12.392 84.9221 12.68 84.4261 13.256C83.9461 13.832 83.7061 14.664 83.7061 15.752V23H80.6341ZM98.8234 23.288C97.7354 23.288 96.7914 23.016 95.9914 22.472C95.2074 21.928 94.5994 21.152 94.1674 20.144C93.7354 19.136 93.5194 17.952 93.5194 16.592C93.5194 15.232 93.7354 14.048 94.1674 13.04C94.5994 12.032 95.2154 11.256 96.0154 10.712C96.8154 10.168 97.7514 9.896 98.8234 9.896C99.7194 9.896 100.503 10.08 101.175 10.448C101.863 10.816 102.383 11.336 102.735 12.008V5.96H105.807V23H102.879L102.807 21.104C102.455 21.792 101.927 22.328 101.223 22.712C100.519 23.096 99.7194 23.288 98.8234 23.288ZM99.7594 20.792C100.399 20.792 100.935 20.632 101.367 20.312C101.815 19.992 102.151 19.52 102.375 18.896C102.615 18.256 102.735 17.488 102.735 16.592C102.735 15.68 102.615 14.912 102.375 14.288C102.151 13.664 101.815 13.192 101.367 12.872C100.935 12.552 100.399 12.392 99.7594 12.392C98.8314 12.392 98.0874 12.768 97.5274 13.52C96.9834 14.256 96.7114 15.28 96.7114 16.592C96.7114 17.872 96.9834 18.896 97.5274 19.664C98.0874 20.416 98.8314 20.792 99.7594 20.792ZM114.987 23.384C113.579 23.384 112.363 23.136 111.339 22.64C110.315 22.144 109.507 21.456 108.915 20.576C108.339 19.68 108.003 18.64 107.907 17.456L111.075 17.264C111.171 18 111.379 18.624 111.699 19.136C112.035 19.648 112.475 20.04 113.019 20.312C113.579 20.568 114.251 20.696 115.035 20.696C115.707 20.696 116.275 20.616 116.739 20.456C117.219 20.28 117.579 20.032 117.819 19.712C118.075 19.376 118.203 18.968 118.203 18.488C118.203 18.056 118.099 17.672 117.891 17.336C117.683 16.984 117.283 16.672 116.691 16.4C116.099 16.112 115.219 15.832 114.051 15.56C112.643 15.24 111.515 14.88 110.667 14.48C109.819 14.064 109.203 13.552 108.819 12.944C108.435 12.32 108.243 11.544 108.243 10.616C108.243 9.624 108.491 8.752 108.987 8C109.483 7.232 110.187 6.64 111.099 6.224C112.011 5.792 113.107 5.576 114.387 5.576C115.747 5.576 116.899 5.824 117.843 6.32C118.787 6.8 119.531 7.464 120.075 8.312C120.619 9.16 120.955 10.136 121.083 11.24L117.939 11.384C117.859 10.76 117.667 10.216 117.363 9.752C117.075 9.288 116.675 8.928 116.163 8.672C115.667 8.4 115.059 8.264 114.339 8.264C113.443 8.264 112.731 8.472 112.203 8.888C111.691 9.288 111.435 9.824 111.435 10.496C111.435 10.96 111.539 11.344 111.747 11.648C111.971 11.952 112.363 12.216 112.923 12.44C113.483 12.648 114.267 12.872 115.275 13.112C116.795 13.432 118.003 13.84 118.899 14.336C119.795 14.832 120.435 15.408 120.819 16.064C121.203 16.72 121.395 17.472 121.395 18.32C121.395 19.36 121.131 20.264 120.603 21.032C120.075 21.784 119.331 22.368 118.371 22.784C117.411 23.184 116.283 23.384 114.987 23.384ZM123.491 23V5.96H126.563V13.112H126.179C126.307 12.376 126.563 11.776 126.947 11.312C127.331 10.832 127.803 10.48 128.363 10.256C128.923 10.016 129.539 9.896 130.211 9.896C131.155 9.896 131.947 10.104 132.587 10.52C133.243 10.92 133.731 11.488 134.051 12.224C134.387 12.96 134.555 13.808 134.555 14.768V23H131.483V15.512C131.483 14.472 131.307 13.696 130.955 13.184C130.603 12.656 130.051 12.392 129.299 12.392C128.467 12.392 127.803 12.664 127.307 13.208C126.811 13.752 126.563 14.544 126.563 15.584V23H123.491ZM140.864 23.288C139.52 23.288 138.44 22.984 137.624 22.376C136.808 21.752 136.4 20.888 136.4 19.784C136.4 18.68 136.744 17.816 137.432 17.192C138.12 16.568 139.168 16.12 140.576 15.848L144.824 15.008C144.824 14.096 144.616 13.416 144.2 12.968C143.784 12.504 143.168 12.272 142.352 12.272C141.616 12.272 141.032 12.448 140.6 12.8C140.184 13.136 139.896 13.624 139.736 14.264L136.616 14.12C136.872 12.76 137.496 11.72 138.488 11C139.48 10.264 140.768 9.896 142.352 9.896C144.176 9.896 145.552 10.36 146.48 11.288C147.424 12.2 147.896 13.512 147.896 15.224V19.88C147.896 20.216 147.952 20.448 148.064 20.576C148.192 20.704 148.376 20.768 148.616 20.768H149.024V23C148.928 23.032 148.768 23.056 148.544 23.072C148.336 23.088 148.12 23.096 147.896 23.096C147.368 23.096 146.896 23.016 146.48 22.856C146.064 22.68 145.744 22.384 145.52 21.968C145.296 21.536 145.184 20.952 145.184 20.216L145.448 20.408C145.32 20.968 145.04 21.472 144.608 21.92C144.192 22.352 143.664 22.688 143.024 22.928C142.384 23.168 141.664 23.288 140.864 23.288ZM141.488 21.056C142.176 21.056 142.768 20.92 143.264 20.648C143.76 20.376 144.144 20 144.416 19.52C144.688 19.04 144.824 18.472 144.824 17.816V17.096L141.512 17.768C140.824 17.912 140.328 18.128 140.024 18.416C139.736 18.688 139.592 19.048 139.592 19.496C139.592 19.992 139.752 20.376 140.072 20.648C140.408 20.92 140.88 21.056 141.488 21.056ZM150.539 23V10.184H153.419L153.539 13.736L153.275 13.688C153.467 12.456 153.827 11.568 154.355 11.024C154.899 10.464 155.635 10.184 156.563 10.184H157.739V12.824H156.539C155.883 12.824 155.339 12.92 154.907 13.112C154.475 13.304 154.147 13.608 153.923 14.024C153.715 14.424 153.611 14.952 153.611 15.608V23H150.539ZM164.462 23.288C163.182 23.288 162.07 23.016 161.126 22.472C160.182 21.912 159.454 21.128 158.942 20.12C158.43 19.112 158.174 17.936 158.174 16.592C158.174 15.248 158.43 14.08 158.942 13.088C159.454 12.08 160.174 11.296 161.102 10.736C162.046 10.176 163.142 9.896 164.39 9.896C165.606 9.896 166.67 10.168 167.582 10.712C168.51 11.256 169.222 12.04 169.718 13.064C170.214 14.088 170.462 15.32 170.462 16.76V17.456H161.366C161.43 18.576 161.734 19.424 162.278 20C162.838 20.56 163.574 20.84 164.486 20.84C165.174 20.84 165.742 20.688 166.19 20.384C166.654 20.064 166.974 19.624 167.15 19.064L170.294 19.256C169.942 20.504 169.246 21.488 168.206 22.208C167.182 22.928 165.934 23.288 164.462 23.288ZM161.366 15.392H167.294C167.23 14.352 166.934 13.584 166.406 13.088C165.878 12.576 165.206 12.32 164.39 12.32C163.574 12.32 162.894 12.584 162.35 13.112C161.822 13.64 161.494 14.4 161.366 15.392Z" fill="url(#paint1_linear_2003_33448)"/>
<path d="M53.104 42V33.48H54.136V42H53.104ZM58.5132 42.144C57.9612 42.144 57.4812 42.008 57.0732 41.736C56.6732 41.464 56.3652 41.08 56.1492 40.584C55.9332 40.088 55.8252 39.5 55.8252 38.82C55.8252 38.14 55.9332 37.552 56.1492 37.056C56.3652 36.56 56.6732 36.176 57.0732 35.904C57.4812 35.632 57.9612 35.496 58.5132 35.496C58.9372 35.496 59.3252 35.588 59.6772 35.772C60.0292 35.948 60.2932 36.2 60.4692 36.528V33.48H61.4772V42H60.5652L60.5292 41.04C60.3532 41.384 60.0852 41.656 59.7252 41.856C59.3652 42.048 58.9612 42.144 58.5132 42.144ZM58.7172 41.184C59.0932 41.184 59.4092 41.088 59.6652 40.896C59.9292 40.704 60.1292 40.432 60.2652 40.08C60.4012 39.72 60.4692 39.3 60.4692 38.82C60.4692 38.324 60.4012 37.9 60.2652 37.548C60.1292 37.196 59.9292 36.928 59.6652 36.744C59.4092 36.552 59.0932 36.456 58.7172 36.456C58.1572 36.456 57.7092 36.668 57.3732 37.092C57.0452 37.508 56.8812 38.084 56.8812 38.82C56.8812 39.548 57.0452 40.124 57.3732 40.548C57.7092 40.972 58.1572 41.184 58.7172 41.184ZM65.9407 42.144C65.3407 42.144 64.8207 42.008 64.3807 41.736C63.9487 41.464 63.6127 41.08 63.3727 40.584C63.1407 40.08 63.0247 39.492 63.0247 38.82C63.0247 38.148 63.1407 37.564 63.3727 37.068C63.6127 36.572 63.9447 36.188 64.3687 35.916C64.8007 35.636 65.3087 35.496 65.8927 35.496C66.4447 35.496 66.9327 35.628 67.3567 35.892C67.7807 36.148 68.1087 36.524 68.3407 37.02C68.5807 37.516 68.7007 38.12 68.7007 38.832V39.132H64.0807C64.1207 39.812 64.3007 40.324 64.6207 40.668C64.9487 41.012 65.3887 41.184 65.9407 41.184C66.3567 41.184 66.6967 41.088 66.9607 40.896C67.2327 40.696 67.4207 40.436 67.5247 40.116L68.6047 40.2C68.4367 40.768 68.1167 41.236 67.6447 41.604C67.1807 41.964 66.6127 42.144 65.9407 42.144ZM64.0807 38.244H67.5967C67.5487 37.628 67.3687 37.176 67.0567 36.888C66.7527 36.6 66.3647 36.456 65.8927 36.456C65.4047 36.456 65.0007 36.608 64.6807 36.912C64.3687 37.208 64.1687 37.652 64.0807 38.244ZM70.2461 42V35.64H71.2541V42H70.2461ZM70.2221 34.644V33.468H71.2781V34.644H70.2221ZM74.9546 42.144C74.2986 42.144 73.7746 41.992 73.3826 41.688C72.9986 41.384 72.8066 40.96 72.8066 40.416C72.8066 39.872 72.9666 39.444 73.2866 39.132C73.6066 38.82 74.1146 38.6 74.8106 38.472L77.0666 38.052C77.0666 37.516 76.9386 37.116 76.6826 36.852C76.4346 36.588 76.0586 36.456 75.5546 36.456C75.1146 36.456 74.7666 36.556 74.5106 36.756C74.2546 36.948 74.0786 37.228 73.9826 37.596L72.9146 37.512C73.0346 36.912 73.3226 36.428 73.7786 36.06C74.2426 35.684 74.8346 35.496 75.5546 35.496C76.3706 35.496 76.9946 35.728 77.4266 36.192C77.8586 36.648 78.0746 37.28 78.0746 38.088V40.716C78.0746 40.86 78.0986 40.964 78.1466 41.028C78.2026 41.084 78.2906 41.112 78.4106 41.112H78.6626V42C78.6306 42.008 78.5786 42.012 78.5066 42.012C78.4346 42.02 78.3586 42.024 78.2786 42.024C77.9906 42.024 77.7546 41.98 77.5706 41.892C77.3946 41.796 77.2666 41.652 77.1866 41.46C77.1066 41.26 77.0666 41 77.0666 40.68L77.1866 40.704C77.1306 40.976 76.9946 41.224 76.7786 41.448C76.5626 41.664 76.2946 41.836 75.9746 41.964C75.6546 42.084 75.3146 42.144 74.9546 42.144ZM75.0506 41.256C75.4746 41.256 75.8346 41.176 76.1306 41.016C76.4346 40.848 76.6666 40.624 76.8266 40.344C76.9866 40.056 77.0666 39.736 77.0666 39.384V38.928L75.0026 39.312C74.5706 39.392 74.2706 39.516 74.1026 39.684C73.9426 39.844 73.8626 40.056 73.8626 40.32C73.8626 40.616 73.9666 40.848 74.1746 41.016C74.3906 41.176 74.6826 41.256 75.0506 41.256ZM82.2737 42.144C81.7057 42.144 81.2217 42.052 80.8217 41.868C80.4297 41.684 80.1217 41.432 79.8977 41.112C79.6817 40.784 79.5577 40.412 79.5257 39.996L80.5817 39.924C80.6457 40.308 80.8097 40.616 81.0737 40.848C81.3377 41.072 81.7377 41.184 82.2737 41.184C82.7057 41.184 83.0497 41.116 83.3057 40.98C83.5697 40.836 83.7017 40.608 83.7017 40.296C83.7017 40.128 83.6617 39.988 83.5817 39.876C83.5017 39.764 83.3457 39.668 83.1137 39.588C82.8817 39.5 82.5377 39.416 82.0817 39.336C81.4737 39.224 80.9937 39.088 80.6417 38.928C80.2977 38.76 80.0497 38.556 79.8977 38.316C79.7537 38.068 79.6817 37.776 79.6817 37.44C79.6817 36.872 79.8897 36.408 80.3057 36.048C80.7217 35.68 81.3137 35.496 82.0817 35.496C82.6017 35.496 83.0377 35.592 83.3897 35.784C83.7497 35.968 84.0297 36.216 84.2297 36.528C84.4377 36.832 84.5737 37.168 84.6377 37.536L83.5817 37.608C83.5337 37.384 83.4457 37.188 83.3177 37.02C83.1897 36.844 83.0217 36.708 82.8137 36.612C82.6057 36.508 82.3577 36.456 82.0697 36.456C81.6137 36.456 81.2777 36.544 81.0617 36.72C80.8457 36.896 80.7377 37.12 80.7377 37.392C80.7377 37.6 80.7857 37.772 80.8817 37.908C80.9857 38.036 81.1497 38.144 81.3737 38.232C81.5977 38.312 81.8977 38.384 82.2737 38.448C82.9217 38.56 83.4257 38.696 83.7857 38.856C84.1457 39.016 84.3977 39.212 84.5417 39.444C84.6857 39.676 84.7577 39.96 84.7577 40.296C84.7577 40.688 84.6457 41.024 84.4217 41.304C84.2057 41.576 83.9097 41.784 83.5337 41.928C83.1657 42.072 82.7457 42.144 82.2737 42.144ZM92.0946 42.144C91.5026 42.144 90.9866 42.008 90.5466 41.736C90.1146 41.464 89.7786 41.08 89.5386 40.584C89.2986 40.08 89.1786 39.492 89.1786 38.82C89.1786 38.148 89.2986 37.564 89.5386 37.068C89.7786 36.572 90.1146 36.188 90.5466 35.916C90.9866 35.636 91.5026 35.496 92.0946 35.496C92.5826 35.496 93.0146 35.584 93.3906 35.76C93.7746 35.928 94.0866 36.176 94.3266 36.504C94.5666 36.832 94.7226 37.232 94.7946 37.704L93.7386 37.776C93.6666 37.352 93.4826 37.028 93.1866 36.804C92.8906 36.572 92.5266 36.456 92.0946 36.456C91.5106 36.456 91.0546 36.668 90.7266 37.092C90.3986 37.508 90.2346 38.084 90.2346 38.82C90.2346 39.556 90.3986 40.136 90.7266 40.56C91.0546 40.976 91.5106 41.184 92.0946 41.184C92.5266 41.184 92.8906 41.064 93.1866 40.824C93.4826 40.584 93.6666 40.224 93.7386 39.744L94.7946 39.816C94.7226 40.288 94.5666 40.7 94.3266 41.052C94.0866 41.396 93.7746 41.664 93.3906 41.856C93.0146 42.048 92.5826 42.144 92.0946 42.144ZM98.7082 42.144C98.1242 42.144 97.6122 42.008 97.1722 41.736C96.7322 41.464 96.3922 41.08 96.1522 40.584C95.9122 40.08 95.7922 39.492 95.7922 38.82C95.7922 38.14 95.9122 37.552 96.1522 37.056C96.3922 36.56 96.7322 36.176 97.1722 35.904C97.6122 35.632 98.1242 35.496 98.7082 35.496C99.2922 35.496 99.8002 35.632 100.232 35.904C100.672 36.176 101.012 36.56 101.252 37.056C101.492 37.552 101.612 38.14 101.612 38.82C101.612 39.492 101.492 40.08 101.252 40.584C101.012 41.08 100.672 41.464 100.232 41.736C99.8002 42.008 99.2922 42.144 98.7082 42.144ZM98.7082 41.184C99.2922 41.184 99.7442 40.976 100.064 40.56C100.392 40.136 100.556 39.556 100.556 38.82C100.556 38.084 100.392 37.508 100.064 37.092C99.7442 36.668 99.2922 36.456 98.7082 36.456C98.1242 36.456 97.6682 36.668 97.3402 37.092C97.0122 37.508 96.8482 38.084 96.8482 38.82C96.8482 39.556 97.0122 40.136 97.3402 40.56C97.6682 40.976 98.1242 41.184 98.7082 41.184ZM104.473 42C104.105 42 103.805 41.904 103.573 41.712C103.341 41.52 103.225 41.216 103.225 40.8V33.48H104.233V40.716C104.233 40.844 104.265 40.944 104.329 41.016C104.401 41.08 104.501 41.112 104.629 41.112H105.181V42H104.473ZM108.32 42.144C107.664 42.144 107.14 41.992 106.748 41.688C106.364 41.384 106.172 40.96 106.172 40.416C106.172 39.872 106.332 39.444 106.652 39.132C106.972 38.82 107.48 38.6 108.176 38.472L110.432 38.052C110.432 37.516 110.304 37.116 110.048 36.852C109.8 36.588 109.424 36.456 108.92 36.456C108.48 36.456 108.132 36.556 107.876 36.756C107.62 36.948 107.444 37.228 107.348 37.596L106.28 37.512C106.4 36.912 106.688 36.428 107.144 36.06C107.608 35.684 108.2 35.496 108.92 35.496C109.736 35.496 110.36 35.728 110.792 36.192C111.224 36.648 111.44 37.28 111.44 38.088V40.716C111.44 40.86 111.464 40.964 111.512 41.028C111.568 41.084 111.656 41.112 111.776 41.112H112.028V42C111.996 42.008 111.944 42.012 111.872 42.012C111.8 42.02 111.724 42.024 111.644 42.024C111.356 42.024 111.12 41.98 110.936 41.892C110.76 41.796 110.632 41.652 110.552 41.46C110.472 41.26 110.432 41 110.432 40.68L110.552 40.704C110.496 40.976 110.36 41.224 110.144 41.448C109.928 41.664 109.66 41.836 109.34 41.964C109.02 42.084 108.68 42.144 108.32 42.144ZM108.416 41.256C108.84 41.256 109.2 41.176 109.496 41.016C109.8 40.848 110.032 40.624 110.192 40.344C110.352 40.056 110.432 39.736 110.432 39.384V38.928L108.368 39.312C107.936 39.392 107.636 39.516 107.468 39.684C107.308 39.844 107.228 40.056 107.228 40.32C107.228 40.616 107.332 40.848 107.54 41.016C107.756 41.176 108.048 41.256 108.416 41.256ZM116.215 42.144C115.775 42.144 115.383 42.048 115.039 41.856C114.695 41.656 114.431 41.384 114.247 41.04L114.211 42H113.299V33.48H114.307V36.528C114.467 36.264 114.715 36.028 115.051 35.82C115.387 35.604 115.775 35.496 116.215 35.496C116.775 35.496 117.259 35.632 117.667 35.904C118.075 36.176 118.391 36.56 118.615 37.056C118.839 37.552 118.951 38.14 118.951 38.82C118.951 39.5 118.839 40.088 118.615 40.584C118.391 41.08 118.075 41.464 117.667 41.736C117.259 42.008 116.775 42.144 116.215 42.144ZM116.155 41.184C116.691 41.184 117.115 40.972 117.427 40.548C117.739 40.124 117.895 39.548 117.895 38.82C117.895 38.084 117.739 37.508 117.427 37.092C117.115 36.668 116.699 36.456 116.179 36.456C115.787 36.456 115.451 36.552 115.171 36.744C114.891 36.928 114.675 37.196 114.523 37.548C114.379 37.9 114.307 38.324 114.307 38.82C114.307 39.3 114.379 39.72 114.523 40.08C114.675 40.432 114.887 40.704 115.159 40.896C115.439 41.088 115.771 41.184 116.155 41.184ZM122.983 42.144C122.399 42.144 121.887 42.008 121.447 41.736C121.007 41.464 120.667 41.08 120.427 40.584C120.187 40.08 120.067 39.492 120.067 38.82C120.067 38.14 120.187 37.552 120.427 37.056C120.667 36.56 121.007 36.176 121.447 35.904C121.887 35.632 122.399 35.496 122.983 35.496C123.567 35.496 124.075 35.632 124.507 35.904C124.947 36.176 125.287 36.56 125.527 37.056C125.767 37.552 125.887 38.14 125.887 38.82C125.887 39.492 125.767 40.08 125.527 40.584C125.287 41.08 124.947 41.464 124.507 41.736C124.075 42.008 123.567 42.144 122.983 42.144ZM122.983 41.184C123.567 41.184 124.019 40.976 124.339 40.56C124.667 40.136 124.831 39.556 124.831 38.82C124.831 38.084 124.667 37.508 124.339 37.092C124.019 36.668 123.567 36.456 122.983 36.456C122.399 36.456 121.943 36.668 121.615 37.092C121.287 37.508 121.123 38.084 121.123 38.82C121.123 39.556 121.287 40.136 121.615 40.56C121.943 40.976 122.399 41.184 122.983 41.184ZM127.441 42V35.64H128.329L128.377 37.248L128.281 37.212C128.361 36.668 128.533 36.272 128.797 36.024C129.069 35.768 129.429 35.64 129.877 35.64H130.501V36.6H129.889C129.569 36.6 129.301 36.66 129.085 36.78C128.877 36.892 128.717 37.064 128.605 37.296C128.501 37.52 128.449 37.808 128.449 38.16V42H127.441ZM133.403 42.144C132.747 42.144 132.223 41.992 131.831 41.688C131.447 41.384 131.255 40.96 131.255 40.416C131.255 39.872 131.415 39.444 131.735 39.132C132.055 38.82 132.563 38.6 133.259 38.472L135.515 38.052C135.515 37.516 135.387 37.116 135.131 36.852C134.883 36.588 134.507 36.456 134.003 36.456C133.563 36.456 133.215 36.556 132.959 36.756C132.703 36.948 132.527 37.228 132.431 37.596L131.363 37.512C131.483 36.912 131.771 36.428 132.227 36.06C132.691 35.684 133.283 35.496 134.003 35.496C134.819 35.496 135.443 35.728 135.875 36.192C136.307 36.648 136.523 37.28 136.523 38.088V40.716C136.523 40.86 136.547 40.964 136.595 41.028C136.651 41.084 136.739 41.112 136.859 41.112H137.111V42C137.079 42.008 137.027 42.012 136.955 42.012C136.883 42.02 136.807 42.024 136.727 42.024C136.439 42.024 136.203 41.98 136.019 41.892C135.843 41.796 135.715 41.652 135.635 41.46C135.555 41.26 135.515 41 135.515 40.68L135.635 40.704C135.579 40.976 135.443 41.224 135.227 41.448C135.011 41.664 134.743 41.836 134.423 41.964C134.103 42.084 133.763 42.144 133.403 42.144ZM133.499 41.256C133.923 41.256 134.283 41.176 134.579 41.016C134.883 40.848 135.115 40.624 135.275 40.344C135.435 40.056 135.515 39.736 135.515 39.384V38.928L133.451 39.312C133.019 39.392 132.719 39.516 132.551 39.684C132.391 39.844 132.311 40.056 132.311 40.32C132.311 40.616 132.415 40.848 132.623 41.016C132.839 41.176 133.131 41.256 133.499 41.256ZM140.441 42C139.865 42 139.437 41.868 139.157 41.604C138.885 41.34 138.749 40.928 138.749 40.368V34.152H139.757V40.344C139.757 40.632 139.821 40.832 139.949 40.944C140.077 41.056 140.273 41.112 140.537 41.112H141.449V42H140.441ZM137.813 36.528V35.64H141.449V36.528H137.813ZM142.922 42V35.64H143.93V42H142.922ZM142.898 34.644V33.468H143.954V34.644H142.898ZM147.535 42L145.219 35.64H146.323L148.171 40.968L150.019 35.64H151.123L148.807 42H147.535ZM153.975 42.144C153.319 42.144 152.795 41.992 152.403 41.688C152.019 41.384 151.827 40.96 151.827 40.416C151.827 39.872 151.987 39.444 152.307 39.132C152.627 38.82 153.135 38.6 153.831 38.472L156.087 38.052C156.087 37.516 155.959 37.116 155.703 36.852C155.455 36.588 155.079 36.456 154.575 36.456C154.135 36.456 153.787 36.556 153.531 36.756C153.275 36.948 153.099 37.228 153.003 37.596L151.935 37.512C152.055 36.912 152.343 36.428 152.799 36.06C153.263 35.684 153.855 35.496 154.575 35.496C155.391 35.496 156.015 35.728 156.447 36.192C156.879 36.648 157.095 37.28 157.095 38.088V40.716C157.095 40.86 157.119 40.964 157.167 41.028C157.223 41.084 157.311 41.112 157.431 41.112H157.683V42C157.651 42.008 157.599 42.012 157.527 42.012C157.455 42.02 157.379 42.024 157.299 42.024C157.011 42.024 156.775 41.98 156.591 41.892C156.415 41.796 156.287 41.652 156.207 41.46C156.127 41.26 156.087 41 156.087 40.68L156.207 40.704C156.151 40.976 156.015 41.224 155.799 41.448C155.583 41.664 155.315 41.836 154.995 41.964C154.675 42.084 154.335 42.144 153.975 42.144ZM154.071 41.256C154.495 41.256 154.855 41.176 155.151 41.016C155.455 40.848 155.687 40.624 155.847 40.344C156.007 40.056 156.087 39.736 156.087 39.384V38.928L154.023 39.312C153.591 39.392 153.291 39.516 153.123 39.684C152.963 39.844 152.883 40.056 152.883 40.32C152.883 40.616 152.987 40.848 153.195 41.016C153.411 41.176 153.703 41.256 154.071 41.256ZM161.294 42.144C160.726 42.144 160.242 42.052 159.842 41.868C159.45 41.684 159.142 41.432 158.918 41.112C158.702 40.784 158.578 40.412 158.546 39.996L159.602 39.924C159.666 40.308 159.83 40.616 160.094 40.848C160.358 41.072 160.758 41.184 161.294 41.184C161.726 41.184 162.07 41.116 162.326 40.98C162.59 40.836 162.722 40.608 162.722 40.296C162.722 40.128 162.682 39.988 162.602 39.876C162.522 39.764 162.366 39.668 162.134 39.588C161.902 39.5 161.558 39.416 161.102 39.336C160.494 39.224 160.014 39.088 159.662 38.928C159.318 38.76 159.07 38.556 158.918 38.316C158.774 38.068 158.702 37.776 158.702 37.44C158.702 36.872 158.91 36.408 159.326 36.048C159.742 35.68 160.334 35.496 161.102 35.496C161.622 35.496 162.058 35.592 162.41 35.784C162.77 35.968 163.05 36.216 163.25 36.528C163.458 36.832 163.594 37.168 163.658 37.536L162.602 37.608C162.554 37.384 162.466 37.188 162.338 37.02C162.21 36.844 162.042 36.708 161.834 36.612C161.626 36.508 161.378 36.456 161.09 36.456C160.634 36.456 160.298 36.544 160.082 36.72C159.866 36.896 159.758 37.12 159.758 37.392C159.758 37.6 159.806 37.772 159.902 37.908C160.006 38.036 160.17 38.144 160.394 38.232C160.618 38.312 160.918 38.384 161.294 38.448C161.942 38.56 162.446 38.696 162.806 38.856C163.166 39.016 163.418 39.212 163.562 39.444C163.706 39.676 163.778 39.96 163.778 40.296C163.778 40.688 163.666 41.024 163.442 41.304C163.226 41.576 162.93 41.784 162.554 41.928C162.186 42.072 161.766 42.144 161.294 42.144Z" fill="#374151"/>
<defs>
<radialGradient id="paint0_radial_2003_33448" cx="0" cy="0" r="1" gradientTransform="matrix(24.5 27.0096 -27.5 24.0631 4.5 11.8662)" gradientUnits="userSpaceOnUse">
<stop stop-color="#9333EA"/>
<stop offset="1" stop-color="#4F46E5"/>
</radialGradient>
<linearGradient id="paint1_linear_2003_33448" x1="52" y1="14.5" x2="172" y2="14.5" gradientUnits="userSpaceOnUse">
<stop stop-color="#9333EA"/>
<stop offset="1" stop-color="#4F46E5"/>
</linearGradient>
</defs>
</svg>
