<svg width="48" height="48" viewBox="0 0 48 48" fill="none" xmlns="http://www.w3.org/2000/svg">
  <path fill-rule="evenodd" clip-rule="evenodd"
    d="M20.5894 8.0393C20.5896 6.69168 20.9868 5.37414 21.731 4.25206C22.4752 3.12997 23.5333 2.25334 24.7725 1.73218C26.0117 1.21102 27.3768 1.06855 28.6965 1.32267C30.0162 1.57678 31.2316 2.21615 32.1902 3.16053C33.1488 4.1049 33.808 5.31221 34.0848 6.63091C34.3617 7.94962 34.244 9.32097 33.7466 10.5728C33.2491 11.8247 32.394 12.9013 31.2885 13.6676C30.1831 14.4338 28.8766 14.8555 27.5331 14.8798L27.0374 16.3687C28.2099 17.0817 29.2275 18.0238 30.0297 19.1389C30.832 20.2541 31.4025 21.5196 31.7075 22.8603H34.7064C35.2287 21.66 36.1473 20.6767 37.3075 20.0757C38.4677 19.4747 39.7989 19.2927 41.0773 19.5603C42.3556 19.8279 43.503 20.5287 44.3267 21.5449C45.1504 22.5612 45.6 23.8308 45.6 25.1404C45.6 26.45 45.1504 27.7197 44.3267 28.7359C43.503 29.7522 42.3556 30.453 41.0773 30.7206C39.7989 30.9881 38.4677 30.8061 37.3075 30.2051C36.1473 29.6042 35.2287 28.6209 34.7064 27.4206H31.7052C31.3266 29.0838 30.5405 30.6261 29.4179 31.9079L31.0186 33.5131C32.2342 33.0347 33.577 32.9907 34.8213 33.3885C36.0655 33.7862 37.1352 34.6015 37.8505 35.6972C38.5658 36.7929 38.883 38.1022 38.749 39.4049C38.6149 40.7076 38.0376 41.9243 37.1142 42.8504C36.1908 43.7764 34.9776 44.3554 33.6786 44.4898C32.3796 44.6243 31.074 44.3061 29.9815 43.5888C28.8889 42.8714 28.076 41.7986 27.6793 40.5509C27.2827 39.3031 27.3266 37.9564 27.8036 36.7373L25.6801 34.6076C24.4277 35.1325 23.0836 35.4023 21.7262 35.4011C20.164 35.4011 18.6224 35.0423 17.2199 34.3522L15.2396 36.7373C15.9974 38.1605 16.2292 39.8066 15.894 41.3846C15.5588 42.9627 14.6782 44.3711 13.4078 45.3611C12.1374 46.351 10.5589 46.8587 8.95136 46.7945C7.3438 46.7303 5.81061 46.0983 4.62271 45.0102C3.43481 43.9221 2.66868 42.4478 2.4597 40.8481C2.25071 39.2483 2.61232 37.6259 3.48063 36.2676C4.34894 34.9093 5.66805 33.9026 7.20487 33.4252C8.7417 32.9479 10.3973 33.0307 11.8791 33.6591L13.6844 31.4838C12.2629 29.6771 11.4913 27.4419 11.4949 25.1404C11.4949 23.4645 11.895 21.8821 12.6067 20.4866L10.6332 18.8358C9.4658 19.4232 8.13233 19.5895 6.85705 19.3068C5.58177 19.024 4.4425 18.3094 3.63085 17.2832C2.8192 16.257 2.3847 14.9818 2.40044 13.6721C2.41617 12.3624 2.88118 11.0981 3.71724 10.0918C4.5533 9.0855 5.70942 8.39866 6.99112 8.14679C8.27282 7.89493 9.6019 8.0934 10.7548 8.70884C11.9078 9.32427 12.8142 10.3191 13.3216 11.526C13.8291 12.7329 13.9066 14.0783 13.5411 15.3358L15.5147 16.9866C17.5693 15.4075 20.1463 14.6721 22.7221 14.9299L23.2177 13.4387C22.3988 12.7987 21.7363 11.9796 21.2808 11.0439C20.8253 10.1082 20.5888 9.08055 20.5894 8.0393Z"
    fill="url(#paint0_radial_2003_36626)" />
  <defs>
    <radialGradient id="paint0_radial_2003_36626" cx="0" cy="0" r="1"
      gradientTransform="matrix(29.4 32.4115 -33 28.8757 5.40002 10.0394)" gradientUnits="userSpaceOnUse">
      <stop stop-color="#9333EA" />
      <stop offset="1" stop-color="#4F46E5" />
    </radialGradient>
  </defs>
</svg>
